<?xml version="1.0" encoding="UTF-8" standalone="no"?>
<!-- Generator: Adobe Illustrator 15.1.0, SVG Export Plug-In  -->

<svg
   xmlns:dc="http://purl.org/dc/elements/1.1/"
   xmlns:cc="http://creativecommons.org/ns#"
   xmlns:rdf="http://www.w3.org/1999/02/22-rdf-syntax-ns#"
   xmlns:svg="http://www.w3.org/2000/svg"
   xmlns="http://www.w3.org/2000/svg"
   xmlns:sodipodi="http://sodipodi.sourceforge.net/DTD/sodipodi-0.dtd"
   xmlns:inkscape="http://www.inkscape.org/namespaces/inkscape"
   version="1.1"
   x="0px"
   y="0px"
   width="16px"
   height="16px"
   viewBox="-1.6 -0.5 16 16"
   style="overflow:visible;enable-background:new -1.6 -0.5 16 16;"
   xml:space="preserve"
   preserveAspectRatio="xMinYMid meet"
   id="svg2"
   inkscape:version="0.91 r13725"
   sodipodi:docname="task-fail.svg"><metadata
   id="metadata10"><rdf:RDF><cc:Work
       rdf:about=""><dc:format>image/svg+xml</dc:format><dc:type
         rdf:resource="http://purl.org/dc/dcmitype/StillImage" /><dc:title></dc:title></cc:Work></rdf:RDF></metadata><sodipodi:namedview
   pagecolor="#ffffff"
   bordercolor="#666666"
   borderopacity="1"
   objecttolerance="10"
   gridtolerance="10"
   guidetolerance="10"
   inkscape:pageopacity="0"
   inkscape:pageshadow="2"
   inkscape:window-width="1600"
   inkscape:window-height="838"
   id="namedview8"
   showgrid="false"
   inkscape:zoom="14.75"
   inkscape:cx="8"
   inkscape:cy="18.165718"
   inkscape:window-x="-8"
   inkscape:window-y="-8"
   inkscape:window-maximized="1"
   inkscape:current-layer="svg2" />
<defs
   id="defs4">
</defs>

<g
   style="font-style:normal;font-weight:normal;font-size:40px;line-height:125%;font-family:sans-serif;letter-spacing:0px;word-spacing:0px;fill:#000000;fill-opacity:1;stroke:none;stroke-width:1px;stroke-linecap:butt;stroke-linejoin:miter;stroke-opacity:1"
   id="text3338"
   transform="matrix(0.59138715,0,0,0.48157491,11.265257,13.552015)"><path
     d="m 1.0224838,-20.243247 q 0,2.421875 -1.83593747,4.84375 -0.58593753,0.761719 -3.47656253,3.691406 -2.890625,2.9101567 -2.890625,3.7500005 0,0.859375 0.4101563,1.484375 -0.5664063,0.058594 -2.5585938,0.390625 -1.8554683,0.3710937 -2.6757813,0.8007812 -0.527344,-1.171875 -0.527344,-2.4804687 0,-1.8359375 1.210938,-4.101563 1.230469,-2.265625 1.230469,-3.457031 0,-1.113281 -0.761719,-1.835937 -0.761719,-0.722657 -1.835938,-0.722657 -1.484375,0 -3.046875,0.800782 l 0.605469,-10.195313 q 2.636719,-0.878906 5.7226563,-0.878906 10.4296875,0 10.4296875,7.910156 z m -5.7226562,19.92187521 q 0,1.52343749 -1.3085938,2.57812499 -1.3085937,1.0351563 -3.0078125,1.0351563 -1.8359373,0 -3.1835933,-1.0351563 -1.328125,-1.0546875 -1.328125,-2.61718749 0,-1.58203121 1.289062,-2.57812501 1.308594,-1.015625 3.2226563,-1.015625 1.7578125,0 3.0078125,0.9960938 1.3085938,1.0546875 1.3085938,2.63671871 z"
     style="font-style:normal;font-variant:normal;font-weight:normal;font-stretch:normal;font-family:'Showcard Gothic';-inkscape-font-specification:'Showcard Gothic';fill:#0000ff"
     id="path3343"
     inkscape:connector-curvature="0" /></g></svg>